<svg width="1829" height="501" viewBox="0 0 1829 501" fill="none" xmlns="http://www.w3.org/2000/svg">
<mask id="mask0_0_6" style="mask-type:alpha" maskUnits="userSpaceOnUse" x="-91" y="0" width="1920" height="501">
<path fill-rule="evenodd" clip-rule="evenodd" d="M1829 500.725L-91 500.725V0.725464C-91 0.725464 375.8 0.725464 855.8 0.725464C1335.8 0.725464 1829 0.725464 1829 0.725464V500.725Z" fill="white"/>
</mask>
<g mask="url(#mask0_0_6)">
<path fill-rule="evenodd" clip-rule="evenodd" d="M967 475.726C926.131 475.726 893 508.857 893 549.726C893 590.595 926.131 623.726 967 623.726C1007.87 623.726 1041 590.595 1041 549.726C1041 508.857 1007.87 475.726 967 475.726Z" fill="#6852ED"/>
<rect x="-56.3704" y="1110.96" width="485" height="1213" rx="242.5" transform="rotate(-136 -56.3704 1110.96)" fill="#6852ED"/>
<path fill-rule="evenodd" clip-rule="evenodd" d="M1513 349.725C1496.43 349.725 1483 363.157 1483 379.725C1483 396.294 1496.43 409.725 1513 409.725C1529.57 409.725 1543 396.294 1543 379.725C1543 363.157 1529.57 349.725 1513 349.725Z" fill="#BA43FC"/>
<path fill-rule="evenodd" clip-rule="evenodd" d="M1446 399.725C1440.48 399.725 1436 404.203 1436 409.725C1436 415.248 1440.48 419.725 1446 419.725C1451.52 419.725 1456 415.248 1456 409.725C1456 404.203 1451.52 399.725 1446 399.725Z" fill="#6852ED"/>
<path fill-rule="evenodd" clip-rule="evenodd" d="M1637.5 0.725464C1609.61 0.725464 1587 23.3351 1587 51.2255C1587 79.1158 1609.61 101.725 1637.5 101.725C1665.39 101.725 1688 79.1158 1688 51.2255C1688 23.3351 1665.39 0.725464 1637.5 0.725464Z" fill="#6852ED"/>
</g>
</svg>
