<svg width="28" height="28" viewBox="0 0 28 28" fill="none" xmlns="http://www.w3.org/2000/svg">
<path d="M16.6245 16.2339C16.5921 16.3205 16.5411 16.4017 16.4714 16.4714C16.4018 16.541 16.3205 16.592 16.2339 16.6244L9.58095 19.2856C9.03674 19.5033 8.49669 18.9632 8.71437 18.419L11.3756 11.766C11.4079 11.6794 11.459 11.5982 11.5286 11.5286C11.5983 11.4589 11.6795 11.4079 11.7661 11.3755L18.4191 8.71431C18.9633 8.49662 19.5034 9.03668 19.2857 9.58089L16.6245 16.2339ZM13.1863 12.2435L15.7565 14.8137L17.47 10.53L13.1863 12.2435ZM14.8137 15.7565L12.2435 13.1863L10.5301 17.4699L14.8137 15.7565ZM14 27.3333C6.63622 27.3333 0.666687 21.3638 0.666687 14C0.666687 6.63616 6.63622 0.666626 14 0.666626C21.3638 0.666626 27.3334 6.63616 27.3334 14C27.3334 21.3638 21.3638 27.3333 14 27.3333ZM14 26C20.6274 26 26 20.6274 26 14C26 7.37254 20.6274 1.99996 14 1.99996C7.3726 1.99996 2.00002 7.37254 2.00002 14C2.00002 20.6274 7.3726 26 14 26Z" fill="#6852ED"/>
</svg>
