<svg width="26" height="45" viewBox="0 0 26 45" fill="none" xmlns="http://www.w3.org/2000/svg">
<path d="M24.6709 30.7461C24.8662 31.0391 25.0615 31.332 25.0615 31.625C25.0615 31.918 24.8662 32.2109 24.6709 32.4062L13.3428 43.7344C13.1475 44.0273 12.8545 44.125 12.5615 44.125C12.1709 44.125 11.9756 44.0273 11.7803 43.7344L0.452148 32.4062C0.15918 32.2109 0.0615234 31.918 0.0615234 31.625C0.0615234 31.332 0.15918 31.0391 0.452148 30.7461L1.13574 30.0625C1.33105 29.8672 1.52637 29.6719 1.91699 29.6719C2.20996 29.6719 2.50293 29.8672 2.7959 30.0625L10.9014 38.2656V1.54688C10.9014 1.25391 10.999 0.960938 11.1943 0.765625C11.3896 0.570312 11.6826 0.375 12.0732 0.375H13.0498C13.3428 0.375 13.6357 0.570312 13.8311 0.765625C14.0264 0.960938 14.2217 1.25391 14.2217 1.54688V38.2656L22.3271 30.0625C22.5225 29.8672 22.8154 29.6719 23.2061 29.6719C23.499 29.6719 23.792 29.8672 23.9873 30.0625L24.6709 30.7461Z" fill="white"/>
</svg>
