<svg width="32" height="32" viewBox="0 0 32 32" fill="none" xmlns="http://www.w3.org/2000/svg">
<path d="M16 32C7.16344 32 0 24.8366 0 16C0 7.16344 7.16344 0 16 0C24.8366 0 32 7.16344 32 16C32 24.8366 24.8366 32 16 32ZM16 30.4C23.9529 30.4 30.4 23.9529 30.4 16C30.4 8.0471 23.9529 1.6 16 1.6C8.0471 1.6 1.6 8.0471 1.6 16C1.6 23.9529 8.0471 30.4 16 30.4ZM20.8 18.4C20.8 17.9582 21.1582 17.6 21.6 17.6C22.0418 17.6 22.4 17.9582 22.4 18.4C22.4 21.4928 19.8928 24 16.8 24H15.2C12.1072 24 9.6 21.4928 9.6 18.4C9.6 17.9582 9.95817 17.6 10.4 17.6C10.8418 17.6 11.2 17.9582 11.2 18.4C11.2 20.6091 12.9909 22.4 15.2 22.4H16.8C19.0091 22.4 20.8 20.6091 20.8 18.4ZM11.2 14.4C10.3163 14.4 9.6 13.6837 9.6 12.8C9.6 11.9163 10.3163 11.2 11.2 11.2C12.0837 11.2 12.8 11.9163 12.8 12.8C12.8 13.6837 12.0837 14.4 11.2 14.4ZM20.8 14.4C19.9163 14.4 19.2 13.6837 19.2 12.8C19.2 11.9163 19.9163 11.2 20.8 11.2C21.6837 11.2 22.4 11.9163 22.4 12.8C22.4 13.6837 21.6837 14.4 20.8 14.4Z" fill="#6852ED"/>
</svg>
