<svg width="120" height="18" viewBox="0 0 120 18" fill="none" xmlns="http://www.w3.org/2000/svg">
<path d="M10.6674 7.4C10.4141 6.93333 10.0474 6.58 9.56742 6.34C9.10076 6.08667 8.54742 5.96 7.90742 5.96C6.80076 5.96 5.91409 6.32667 5.24742 7.06C4.58076 7.78 4.24742 8.74667 4.24742 9.96C4.24742 11.2533 4.59409 12.2667 5.28742 13C5.99409 13.72 6.96076 14.08 8.18742 14.08C9.02742 14.08 9.73409 13.8667 10.3074 13.44C10.8941 13.0133 11.3208 12.4 11.5874 11.6H7.24742V9.08H14.6874V12.26C14.4341 13.1133 14.0008 13.9067 13.3874 14.64C12.7874 15.3733 12.0208 15.9667 11.0874 16.42C10.1541 16.8733 9.10076 17.1 7.92742 17.1C6.54076 17.1 5.30076 16.8 4.20742 16.2C3.12742 15.5867 2.28076 14.74 1.66742 13.66C1.06742 12.58 0.767422 11.3467 0.767422 9.96C0.767422 8.57333 1.06742 7.34 1.66742 6.26C2.28076 5.16667 3.12742 4.32 4.20742 3.72C5.28742 3.10667 6.52076 2.8 7.90742 2.8C9.58742 2.8 11.0008 3.20667 12.1474 4.02C13.3074 4.83333 14.0741 5.96 14.4474 7.4H10.6674ZM18.8018 4.68C18.2018 4.68 17.7085 4.50667 17.3218 4.16C16.9485 3.8 16.7618 3.36 16.7618 2.84C16.7618 2.30667 16.9485 1.86667 17.3218 1.52C17.7085 1.16 18.2018 0.979999 18.8018 0.979999C19.3885 0.979999 19.8685 1.16 20.2418 1.52C20.6285 1.86667 20.8218 2.30667 20.8218 2.84C20.8218 3.36 20.6285 3.8 20.2418 4.16C19.8685 4.50667 19.3885 4.68 18.8018 4.68ZM20.5018 5.84V17H17.0818V5.84H20.5018ZM29.0802 8.68H27.2402V17H23.8202V8.68H22.5802V5.84H23.8202V5.52C23.8202 4.14667 24.2136 3.10667 25.0002 2.4C25.7869 1.68 26.9402 1.32 28.4602 1.32C28.7136 1.32 28.9002 1.32667 29.0202 1.34V4.24C28.3669 4.2 27.9069 4.29333 27.6402 4.52C27.3736 4.74667 27.2402 5.15333 27.2402 5.74V5.84H29.0802V8.68ZM37.4073 14.1V17H35.6673C34.4273 17 33.4606 16.7 32.7673 16.1C32.0739 15.4867 31.7273 14.4933 31.7273 13.12V8.68H30.3673V5.84H31.7273V3.12H35.1473V5.84H37.3873V8.68H35.1473V13.16C35.1473 13.4933 35.2273 13.7333 35.3873 13.88C35.5473 14.0267 35.8139 14.1 36.1873 14.1H37.4073ZM55.2505 7.48C55.2505 8.29333 55.0639 9.04 54.6905 9.72C54.3172 10.3867 53.7439 10.9267 52.9705 11.34C52.1972 11.7533 51.2372 11.96 50.0905 11.96H47.9705V17H44.5505V2.96H50.0905C51.2105 2.96 52.1572 3.15333 52.9305 3.54C53.7039 3.92667 54.2839 4.46 54.6705 5.14C55.0572 5.82 55.2505 6.6 55.2505 7.48ZM49.8305 9.24C50.4839 9.24 50.9705 9.08667 51.2905 8.78C51.6105 8.47333 51.7705 8.04 51.7705 7.48C51.7705 6.92 51.6105 6.48667 51.2905 6.18C50.9705 5.87333 50.4839 5.72 49.8305 5.72H47.9705V9.24H49.8305ZM56.851 11.4C56.851 10.2533 57.0643 9.24667 57.491 8.38C57.931 7.51333 58.5243 6.84667 59.271 6.38C60.0177 5.91333 60.851 5.68 61.771 5.68C62.5577 5.68 63.2443 5.84 63.831 6.16C64.431 6.48 64.891 6.9 65.211 7.42V5.84H68.631V17H65.211V15.42C64.8777 15.94 64.411 16.36 63.811 16.68C63.2243 17 62.5377 17.16 61.751 17.16C60.8443 17.16 60.0177 16.9267 59.271 16.46C58.5243 15.98 57.931 15.3067 57.491 14.44C57.0643 13.56 56.851 12.5467 56.851 11.4ZM65.211 11.42C65.211 10.5667 64.971 9.89333 64.491 9.4C64.0243 8.90667 63.451 8.66 62.771 8.66C62.091 8.66 61.511 8.90667 61.031 9.4C60.5643 9.88 60.331 10.5467 60.331 11.4C60.331 12.2533 60.5643 12.9333 61.031 13.44C61.511 13.9333 62.091 14.18 62.771 14.18C63.451 14.18 64.0243 13.9333 64.491 13.44C64.971 12.9467 65.211 12.2733 65.211 11.42ZM75.0252 7.7C75.4252 7.08667 75.9252 6.60667 76.5252 6.26C77.1252 5.9 77.7919 5.72 78.5252 5.72V9.34H77.5852C76.7319 9.34 76.0919 9.52667 75.6652 9.9C75.2386 10.26 75.0252 10.9 75.0252 11.82V17H71.6052V5.84H75.0252V7.7ZM79.9799 11.4C79.9799 10.2533 80.1933 9.24667 80.6199 8.38C81.0599 7.51333 81.6533 6.84667 82.3999 6.38C83.1466 5.91333 83.9799 5.68 84.8999 5.68C85.6866 5.68 86.3733 5.84 86.9599 6.16C87.5599 6.48 88.0199 6.9 88.3399 7.42V5.84H91.7599V17H88.3399V15.42C88.0066 15.94 87.5399 16.36 86.9399 16.68C86.3533 17 85.6666 17.16 84.8799 17.16C83.9733 17.16 83.1466 16.9267 82.3999 16.46C81.6533 15.98 81.0599 15.3067 80.6199 14.44C80.1933 13.56 79.9799 12.5467 79.9799 11.4ZM88.3399 11.42C88.3399 10.5667 88.0999 9.89333 87.6199 9.4C87.1533 8.90667 86.5799 8.66 85.8999 8.66C85.2199 8.66 84.6399 8.90667 84.1599 9.4C83.6933 9.88 83.4599 10.5467 83.4599 11.4C83.4599 12.2533 83.6933 12.9333 84.1599 13.44C84.6399 13.9333 85.2199 14.18 85.8999 14.18C86.5799 14.18 87.1533 13.9333 87.6199 13.44C88.0999 12.9467 88.3399 12.2733 88.3399 11.42ZM94.0541 11.4C94.0541 10.2533 94.2675 9.24667 94.6941 8.38C95.1341 7.51333 95.7275 6.84667 96.4741 6.38C97.2208 5.91333 98.0541 5.68 98.9741 5.68C99.7075 5.68 100.374 5.83333 100.974 6.14C101.587 6.44667 102.067 6.86 102.414 7.38V2.2H105.834V17H102.414V15.4C102.094 15.9333 101.634 16.36 101.034 16.68C100.447 17 99.7608 17.16 98.9741 17.16C98.0541 17.16 97.2208 16.9267 96.4741 16.46C95.7275 15.98 95.1341 15.3067 94.6941 14.44C94.2675 13.56 94.0541 12.5467 94.0541 11.4ZM102.414 11.42C102.414 10.5667 102.174 9.89333 101.694 9.4C101.227 8.90667 100.654 8.66 99.9741 8.66C99.2941 8.66 98.7141 8.90667 98.2341 9.4C97.7675 9.88 97.5341 10.5467 97.5341 11.4C97.5341 12.2533 97.7675 12.9333 98.2341 13.44C98.7141 13.9333 99.2941 14.18 99.9741 14.18C100.654 14.18 101.227 13.9333 101.694 13.44C102.174 12.9467 102.414 12.2733 102.414 11.42ZM119.328 11.24C119.328 11.56 119.308 11.8933 119.268 12.24H111.528C111.582 12.9333 111.802 13.4667 112.188 13.84C112.588 14.2 113.075 14.38 113.648 14.38C114.502 14.38 115.095 14.02 115.428 13.3H119.068C118.882 14.0333 118.542 14.6933 118.048 15.28C117.568 15.8667 116.962 16.3267 116.228 16.66C115.495 16.9933 114.675 17.16 113.768 17.16C112.675 17.16 111.702 16.9267 110.848 16.46C109.995 15.9933 109.328 15.3267 108.848 14.46C108.368 13.5933 108.128 12.58 108.128 11.42C108.128 10.26 108.362 9.24667 108.828 8.38C109.308 7.51333 109.975 6.84667 110.828 6.38C111.682 5.91333 112.662 5.68 113.768 5.68C114.848 5.68 115.808 5.90667 116.648 6.36C117.488 6.81333 118.142 7.46 118.608 8.3C119.088 9.14 119.328 10.12 119.328 11.24ZM115.828 10.34C115.828 9.75333 115.628 9.28667 115.228 8.94C114.828 8.59333 114.328 8.42 113.728 8.42C113.155 8.42 112.668 8.58667 112.268 8.92C111.882 9.25333 111.642 9.72667 111.548 10.34H115.828Z" fill="#192C50"/>
</svg>
